<?xml version="1.0" standalone="no"?>
<!DOCTYPE svg PUBLIC "-//W3C//DTD SVG 20010904//EN"
 "http://www.w3.org/TR/2001/REC-SVG-20010904/DTD/svg10.dtd">
<svg version="1.0" xmlns="http://www.w3.org/2000/svg"
 width="656.000000pt" height="656.000000pt" viewBox="0 0 656.000000 656.000000"
 preserveAspectRatio="xMidYMid meet">
<metadata>
Created by potrace 1.14, written by Peter Selinger 2001-2017
</metadata>
<g transform="translate(0.000000,656.000000) scale(0.100000,-0.100000)"
fill="#000000" stroke="none">
<path d="M1127 5190 c-3 -10 -1 -20 4 -22 5 -2 11 -21 13 -44 1 -22 5 -45 8
-50 3 -5 5 -28 4 -52 -1 -23 3 -42 8 -42 5 0 6 -3 3 -7 -4 -3 -2 -11 3 -18 5
-6 11 -36 12 -66 2 -30 8 -57 13 -61 6 -5 5 -8 -3 -8 -9 0 -10 -5 -4 -17 5
-10 8 -35 8 -56 -1 -20 2 -37 6 -37 3 0 5 -8 3 -17 -1 -10 2 -23 7 -30 5 -7 7
-16 4 -22 -3 -5 1 -12 10 -15 8 -3 13 -10 9 -16 -3 -5 1 -23 10 -40 8 -16 13
-30 9 -30 -4 0 -1 -6 5 -14 9 -10 8 -15 -3 -19 -9 -4 -12 -14 -9 -26 3 -12 9
-19 12 -16 4 2 8 -2 8 -10 0 -8 -4 -12 -9 -9 -13 8 -9 -13 5 -28 6 -7 12 -25
11 -40 -1 -16 3 -28 8 -28 5 0 6 -4 3 -10 -3 -5 -2 -10 3 -10 14 0 8 -44 -8
-57 -8 -7 -10 -13 -5 -13 6 0 5 -4 -2 -8 -6 -4 -14 -20 -17 -36 -3 -16 -6 -29
-8 -30 -2 -1 -12 -8 -22 -16 -18 -13 -19 -13 -11 0 5 8 11 25 13 38 4 35 -27
28 -34 -8 -4 -16 -11 -30 -16 -30 -5 0 -6 -4 -3 -10 3 -5 2 -10 -4 -10 -5 0
-8 -9 -6 -20 2 -11 -1 -22 -6 -25 -5 -4 -7 -11 -4 -16 4 -5 2 -9 -3 -9 -4 0
-14 -16 -22 -35 -8 -19 -17 -35 -22 -35 -4 0 -8 -4 -8 -10 0 -5 -8 -19 -17
-30 -10 -11 -19 -24 -19 -28 -5 -25 -18 -52 -24 -52 -5 0 -13 -12 -19 -27 -20
-49 -42 -83 -52 -83 -6 0 -8 -4 -5 -8 3 -5 -4 -19 -15 -31 -11 -12 -17 -26
-14 -31 3 -6 2 -10 -4 -10 -9 0 -22 -27 -27 -58 -4 -24 -55 -102 -66 -102 -6
0 -9 -3 -5 -6 3 -4 0 -21 -8 -39 -7 -19 -11 -36 -7 -39 3 -3 0 -6 -6 -6 -7 0
-12 -6 -12 -13 0 -7 -9 -23 -21 -35 -11 -12 -17 -27 -14 -32 3 -6 2 -10 -2
-10 -5 0 -19 -20 -33 -45 -14 -25 -28 -45 -33 -45 -4 0 -5 -4 -2 -10 3 -5 1
-10 -5 -10 -7 0 -10 -7 -6 -15 3 -9 -3 -23 -14 -32 -11 -10 -20 -24 -20 -33 0
-8 -7 -24 -15 -34 -8 -10 -12 -23 -9 -27 3 -5 1 -9 -5 -9 -10 0 -23 -29 -18
-41 1 -4 -5 -15 -14 -25 -9 -11 -19 -32 -21 -49 -7 -43 -12 -58 -23 -72 -5 -7
-15 -18 -21 -25 -13 -16 -28 -51 -26 -60 1 -5 -3 -8 -9 -8 -5 0 -7 -4 -4 -10
3 -5 1 -10 -5 -10 -6 0 -9 -4 -6 -9 4 -5 1 -11 -5 -13 -10 -3 -48 -100 -63
-160 -3 -9 -12 -30 -20 -47 -9 -16 -16 -34 -16 -40 0 -5 -5 -22 -12 -38 -6
-15 -10 -34 -9 -41 1 -7 -7 -28 -18 -46 -12 -18 -21 -43 -21 -55 0 -12 -4 -19
-10 -16 -6 4 -10 -7 -10 -24 0 -18 5 -31 13 -31 12 0 70 76 73 96 4 27 30 69
45 72 22 4 30 -21 15 -49 -17 -34 -40 -111 -39 -132 0 -9 -3 -17 -7 -17 -5 0
-7 -8 -5 -18 1 -9 -3 -24 -11 -32 -10 -13 -12 -31 -5 -58 3 -9 41 21 41 33 0
8 9 23 21 33 11 11 21 28 22 39 0 11 15 30 33 43 17 14 37 37 43 52 15 33 30
29 24 -5 -3 -17 0 -24 11 -24 9 0 16 4 16 9 0 4 5 8 11 8 6 0 9 -6 6 -13 -11
-30 26 -11 41 20 9 18 19 33 24 33 4 0 8 6 8 13 0 8 11 24 25 37 14 13 25 27
25 32 0 10 32 48 42 48 3 0 3 -14 -2 -31 -5 -18 -7 -36 -4 -40 2 -5 -5 -27
-16 -49 -11 -22 -18 -45 -15 -49 3 -5 -1 -12 -7 -15 -7 -3 -2 -4 11 -3 13 1
27 9 32 17 24 49 60 130 59 136 -1 4 3 10 10 14 6 4 12 16 13 28 0 11 4 19 8
16 4 -2 9 6 12 17 4 13 10 18 17 14 7 -4 8 -10 3 -14 -14 -10 -9 -36 7 -36 8
0 24 18 35 40 12 22 28 51 37 64 10 13 15 27 13 31 -3 4 6 19 20 34 13 14 21
26 18 26 -4 0 -2 5 5 12 7 7 12 22 12 33 0 12 8 30 19 41 10 11 21 37 25 58 4
20 16 46 27 57 10 10 16 19 12 19 -5 1 3 10 16 20 13 11 20 20 17 20 -4 0 -1
10 6 23 7 12 11 28 10 35 -3 14 19 12 30 -3 7 -9 12 8 6 20 -2 2 6 11 17 19
11 9 17 16 12 16 -4 0 2 17 13 37 11 21 20 43 20 50 0 7 5 13 10 13 6 0 10 5
10 11 0 6 6 17 13 24 30 34 37 45 30 45 -4 0 -2 5 5 12 7 7 12 18 12 25 0 7
11 31 24 52 14 21 23 41 20 44 -9 8 36 98 46 92 5 -3 7 -20 5 -37 -2 -18 0
-37 5 -43 5 -6 11 -26 13 -45 2 -19 10 -48 17 -65 7 -16 14 -32 15 -35 6 -18
18 -49 28 -70 6 -14 10 -29 8 -34 -1 -4 3 -14 9 -20 5 -7 7 -15 4 -19 -3 -3 4
-8 15 -12 12 -3 19 -10 16 -15 -3 -5 6 -17 20 -27 15 -10 39 -29 56 -41 16
-13 29 -21 29 -18 0 3 16 -2 35 -10 25 -10 35 -11 35 -2 0 6 3 8 7 5 3 -4 11
-1 17 6 6 7 10 11 9 9 -1 -2 4 -10 10 -17 9 -10 15 -10 26 -1 12 8 13 8 7 -2
-6 -10 -2 -10 21 0 15 7 30 16 33 20 3 4 15 9 26 11 11 1 31 13 44 25 22 20
34 26 52 23 4 0 9 8 13 18 3 11 16 22 28 25 13 3 42 24 65 46 24 22 47 40 51
40 5 0 11 7 15 15 3 8 13 15 21 15 9 0 13 5 10 10 -3 6 0 10 9 10 8 0 23 12
35 28 19 27 20 27 35 7 14 -18 14 -22 -5 -37 -12 -10 -16 -18 -11 -18 6 0 14
5 18 11 4 8 9 7 15 -2 5 -9 1 -21 -12 -35 -15 -16 -17 -24 -8 -29 9 -6 9 -11
-3 -19 -12 -10 -29 -37 -59 -98 -5 -10 -9 -25 -9 -33 0 -8 -4 -15 -9 -15 -5 0
-11 -8 -15 -17 -20 -57 -27 -81 -31 -103 -3 -14 -6 -32 -8 -41 -1 -9 -10 -27
-18 -40 -8 -13 -15 -31 -14 -39 0 -8 -7 -21 -16 -28 -10 -6 -20 -26 -24 -42
-4 -17 -11 -30 -15 -30 -5 0 -7 -6 -4 -14 3 -8 1 -17 -5 -21 -6 -3 -11 -13
-11 -22 0 -9 -8 -23 -17 -32 -23 -21 -27 -39 -12 -57 9 -11 9 -14 0 -14 -7 0
-10 -4 -7 -8 3 -5 -2 -21 -9 -36 -8 -16 -13 -32 -10 -36 3 -5 0 -10 -5 -12
-10 -3 -17 -24 -19 -55 -1 -6 -9 -14 -19 -17 -13 -4 -18 -15 -16 -36 1 -19 -6
-38 -22 -55 -13 -15 -22 -31 -19 -36 4 -5 1 -9 -6 -9 -7 0 -9 -3 -6 -7 4 -3 2
-12 -4 -20 -6 -7 -8 -13 -4 -13 4 0 2 -7 -5 -15 -6 -8 -9 -19 -5 -24 3 -6 -3
-16 -13 -22 -15 -9 -18 -20 -15 -46 3 -18 1 -33 -4 -33 -5 0 -10 -12 -11 -26
-1 -15 -7 -33 -13 -40 -6 -7 -8 -18 -4 -24 3 -5 2 -10 -4 -10 -8 0 -22 -42
-23 -67 0 -5 -4 -14 -10 -21 -6 -6 -7 -12 -2 -12 5 0 5 -4 -1 -8 -20 -15 -34
-51 -30 -81 2 -17 -1 -31 -6 -31 -6 0 -8 -4 -4 -9 3 -5 1 -12 -5 -16 -5 -3
-10 -15 -10 -26 0 -10 -4 -19 -10 -19 -5 0 -8 -14 -6 -30 2 -17 0 -33 -5 -35
-4 -3 -6 -21 -3 -40 2 -19 0 -35 -5 -35 -5 0 -11 -15 -15 -33 -18 -104 -18
-104 -2 -104 9 0 14 3 11 5 -3 3 2 13 10 22 9 10 15 21 14 26 -4 16 20 64 31
64 6 0 9 3 7 8 -3 4 -1 18 4 31 8 19 12 21 24 11 18 -15 23 -12 28 16 1 10 6
24 10 31 5 8 0 9 -15 6 l-23 -6 21 19 c19 17 34 47 40 80 6 33 17 55 24 48 12
-13 16 -57 7 -71 -5 -7 -10 -22 -12 -33 -3 -17 2 -20 30 -20 30 0 34 4 40 32
4 18 12 36 16 39 5 3 11 16 14 29 6 33 11 34 36 11 13 -12 19 -21 13 -21 -5 0
-2 -5 6 -10 8 -5 10 -10 4 -10 -6 0 -11 -7 -11 -15 0 -36 33 -4 41 40 3 15 10
31 16 35 7 4 11 10 11 14 -3 15 12 56 20 56 16 0 49 44 49 66 0 13 5 26 10 29
7 4 6 13 -1 26 -10 20 -9 20 14 5 27 -18 37 -13 37 20 0 13 5 26 10 29 6 4 10
12 9 18 -3 26 2 46 14 59 7 7 21 24 30 38 13 19 17 21 17 7 0 -9 -4 -17 -10
-17 -5 0 -7 -7 -4 -15 4 -8 1 -15 -6 -15 -6 0 -8 -4 -5 -10 3 -5 1 -18 -5 -29
-16 -30 8 -38 28 -10 9 13 16 26 15 29 -1 3 6 13 14 23 9 9 13 17 9 17 -4 0
-1 10 6 23 6 12 13 31 15 42 6 32 32 65 52 65 15 0 53 54 56 80 3 28 31 70 47
70 10 0 16 5 13 10 -3 6 -1 10 5 10 7 0 10 6 7 14 -3 8 1 17 9 20 8 3 14 12
14 21 0 8 4 15 9 15 5 0 11 9 14 20 3 11 1 18 -4 14 -5 -3 -9 2 -9 10 0 9 6
15 12 14 7 -2 13 4 13 12 0 8 7 21 15 28 8 8 10 11 3 8 -8 -4 -7 3 2 22 9 16
32 35 55 46 23 10 39 20 37 23 -3 2 4 25 15 49 19 44 29 76 30 102 1 6 4 12 8
12 5 0 40 76 46 100 13 47 17 53 29 37 11 -15 14 -14 33 8 13 15 17 27 11 31
-7 4 -5 12 5 23 8 9 22 33 31 54 8 20 20 37 26 37 5 0 8 4 5 9 -3 5 3 20 14
33 11 14 17 28 13 32 -3 3 2 15 12 26 10 11 15 20 10 20 -4 0 0 11 9 25 9 14
14 25 12 25 -3 0 5 20 19 45 13 25 19 43 14 39 -5 -3 -1 9 10 27 11 18 18 36
15 41 -3 4 0 8 7 8 6 0 9 8 6 20 -3 11 -1 18 4 14 5 -3 9 1 9 10 0 8 4 16 9
18 6 2 11 14 13 28 2 14 7 31 11 38 5 7 3 12 -3 12 -7 0 -7 5 2 14 8 7 13 31
12 54 0 23 3 39 7 36 10 -6 22 33 15 45 -4 5 0 11 6 14 10 4 11 7 1 18 -10 10
-13 10 -13 0 0 -7 -4 -9 -10 -6 -5 3 -10 2 -10 -3 0 -4 -9 -18 -20 -30 -12
-12 -16 -22 -10 -22 6 0 3 -9 -7 -20 -10 -10 -34 -55 -53 -100 -35 -82 -43
-92 -54 -65 -7 18 3 45 16 45 5 0 7 4 4 9 -3 5 0 14 8 20 8 7 12 21 8 33 -3
14 -1 19 6 14 6 -3 13 6 17 24 4 16 11 30 16 30 5 0 11 11 15 25 3 14 10 25
16 25 5 0 7 4 4 9 -3 5 1 11 9 15 8 3 15 11 15 18 0 8 8 21 18 29 34 31 54 62
56 85 1 16 7 24 19 24 16 0 16 -3 3 -34 -8 -18 -22 -43 -32 -54 -10 -12 -19
-28 -20 -36 -2 -17 29 -32 34 -17 2 6 7 9 11 7 4 -3 18 15 31 40 14 24 28 44
32 44 4 0 5 6 2 14 -3 8 4 24 15 35 12 12 18 21 14 21 -3 0 1 8 10 18 10 10
14 22 10 25 -3 4 -1 7 5 7 7 0 11 3 10 8 -4 14 13 52 23 52 6 0 8 4 4 10 -3 5
3 18 15 30 11 11 20 25 20 30 0 6 11 33 25 60 14 28 25 51 24 52 -1 2 33 67
52 99 2 3 -2 13 -10 23 -10 12 -17 13 -26 6 -9 -8 -17 -7 -27 3 -7 7 -20 12
-28 10 -10 -3 -11 -2 -4 4 32 24 14 80 -35 109 -16 9 -27 23 -24 30 2 6 -6 19
-18 28 -18 12 -21 18 -11 28 7 7 12 22 12 35 0 13 4 23 8 23 5 0 9 7 9 15 0 8
-4 12 -9 9 -4 -3 -8 0 -8 7 0 8 -4 8 -15 -1 -8 -7 -15 -22 -15 -33 0 -20 -1
-20 -17 3 -26 38 -46 50 -60 38 -7 -6 -13 -7 -13 -3 0 4 -7 2 -15 -5 -8 -7
-15 -9 -15 -4 0 5 -5 1 -11 -8 -5 -10 -16 -18 -23 -18 -8 0 -16 -10 -19 -22
-4 -12 -9 -19 -12 -16 -9 9 -45 -23 -45 -39 0 -7 -4 -13 -9 -13 -8 0 -22 -13
-110 -103 -19 -19 -40 -33 -48 -30 -7 3 -13 0 -13 -7 0 -6 -3 -9 -7 -7 -8 4
-43 -28 -43 -38 0 -3 0 -10 0 -15 0 -6 -6 -10 -12 -9 -25 3 -39 -1 -34 -10 3
-5 -1 -12 -10 -15 -9 -4 -14 -9 -11 -12 6 -6 -52 -64 -65 -64 -3 0 -10 -9 -13
-20 -4 -11 -10 -18 -15 -15 -9 5 -60 -50 -60 -66 0 -5 -3 -8 -7 -7 -14 4 -68
-30 -83 -51 -8 -12 -22 -21 -32 -21 -10 0 -18 -6 -18 -14 0 -13 -114 -95 -175
-126 -16 -8 -39 -23 -49 -32 -10 -10 -23 -15 -28 -12 -4 3 -8 -2 -8 -10 0 -9
-7 -16 -15 -16 -9 0 -18 -7 -21 -15 -4 -8 -10 -12 -15 -9 -5 3 -9 0 -9 -5 0
-6 -6 -11 -14 -11 -8 0 -22 -7 -30 -16 -9 -8 -16 -12 -16 -7 0 4 -4 2 -8 -4
-9 -15 -55 33 -60 63 -2 10 -11 24 -20 31 -14 10 -14 12 -2 13 10 0 11 3 3 11
-6 6 -9 18 -6 27 4 9 2 13 -4 9 -7 -5 -9 0 -6 13 3 12 -1 22 -9 25 -9 4 -14
16 -13 29 2 13 -3 36 -10 52 -7 16 -19 49 -27 74 -8 28 -19 44 -27 42 -9 -2
-12 4 -7 21 3 13 -1 32 -9 44 -8 11 -11 23 -8 27 3 3 -1 6 -11 6 -9 0 -14 5
-11 10 3 6 -4 14 -17 19 -13 6 -18 10 -12 10 13 1 14 61 2 61 -5 0 -8 10 -8
22 0 12 -3 19 -6 15 -11 -10 -33 17 -23 29 6 7 -4 23 -26 46 -31 31 -34 37
-20 48 20 17 19 29 -6 51 -11 9 -20 20 -20 23 1 3 -11 32 -26 63 -14 32 -27
60 -28 63 -1 3 -7 19 -14 35 -7 17 -12 31 -12 33 1 1 -6 16 -14 32 -9 17 -13
35 -10 40 3 6 2 10 -2 10 -5 0 -13 13 -19 28 -13 34 -49 41 -39 8 4 -12 8 -28
9 -36 1 -9 5 -21 10 -28 4 -6 4 -12 -1 -12 -4 0 -2 -4 6 -9 8 -5 11 -16 8 -26
-4 -9 -12 -13 -18 -9 -8 4 -9 3 -5 -4 4 -7 2 -12 -5 -12 -8 0 -8 -4 -1 -12 7
-9 6 -17 -3 -25 -16 -15 -35 4 -38 36 -1 12 -5 21 -9 21 -4 0 -8 6 -8 13 0 8
-9 22 -20 32 -11 10 -18 20 -15 23 2 2 -2 20 -10 39 -8 20 -15 46 -15 58 0 18
-4 22 -20 18 -16 -4 -19 -13 -17 -49 1 -24 6 -44 11 -44 4 0 3 -7 -4 -15 -7
-8 -8 -15 -3 -15 6 0 9 -11 8 -25 -4 -31 15 -95 28 -95 6 0 0 -8 -11 -19 -22
-19 -30 -37 -12 -26 6 3 10 0 11 -7 2 -34 11 -63 22 -70 9 -6 9 -8 0 -8 -7 0
-16 0 -20 0 -5 0 -8 8 -9 19 -1 11 -5 28 -9 38 -4 10 -9 37 -11 61 -1 24 -7
49 -13 56 -6 7 -8 16 -4 19 3 4 -1 7 -10 7 -10 0 -17 3 -17 8 0 4 -11 19 -25
34 -13 14 -27 38 -31 52 -3 14 -11 26 -16 26 -6 0 -8 9 -5 20 3 11 2 18 -3 15
-8 -5 -36 63 -44 105 -2 14 -5 25 -6 25 -4 0 -13 53 -14 82 0 17 -4 29 -8 26
-5 -2 -8 1 -8 7 0 11 -24 40 -33 40 -3 0 -7 -9 -10 -20z m320 -526 c-3 -4 1
-13 9 -21 8 -9 12 -18 9 -21 -5 -6 -34 27 -35 41 0 4 5 7 12 7 6 0 9 -3 5 -6z
m155 -176 c17 -26 13 -54 -5 -39 -7 5 -15 10 -19 10 -5 1 -8 3 -8 6 0 3 0 14
0 25 0 26 14 25 32 -2z m75 15 c-4 -3 0 -17 8 -29 13 -21 13 -23 0 -18 -8 4
-15 12 -15 20 0 8 -5 14 -11 14 -5 0 -7 5 -4 10 3 6 11 10 17 10 6 0 8 -3 5
-7z m1621 -188 c-9 -9 -30 14 -23 25 6 9 10 8 17 -4 6 -10 8 -19 6 -21z
m-1609 -6 c11 -18 10 -20 -5 -17 -9 1 -23 13 -31 25 -13 20 -13 21 4 17 11 -3
25 -14 32 -25z m1639 -113 c-2 -12 -9 -20 -16 -18 -6 1 -12 -4 -12 -12 0 -8
-12 -28 -26 -45 -14 -17 -23 -31 -19 -31 4 0 2 -6 -4 -13 -6 -8 -8 -17 -4 -20
3 -4 -3 -7 -15 -7 -22 0 -22 0 4 43 15 23 31 44 36 45 4 2 6 8 2 13 -3 5 -1 9
4 9 9 0 25 36 24 51 -1 3 6 6 14 6 10 0 14 -8 12 -21z m-1458 -128 c0 -4 -4
-8 -10 -8 -5 0 -10 7 -10 15 0 8 -4 15 -10 15 -5 0 -10 5 -10 12 0 6 9 3 20
-7 11 -10 20 -22 20 -27z m-51 -14 c4 3 7 -4 7 -15 0 -19 -1 -19 -19 0 -13 12
-16 24 -11 32 7 11 9 10 12 -4 2 -9 7 -15 11 -13z m70 -127 c1 -5 -3 -5 -9 -2
-5 3 -10 16 -9 28 0 21 1 21 9 2 5 -11 9 -24 9 -28z m1335 29 c-7 -19 -34 -29
-34 -12 0 7 3 16 7 19 12 13 32 7 27 -7z m-1301 -87 c5 -3 2 -9 -5 -12 -9 -3
-14 3 -15 15 -1 11 1 16 5 12 4 -5 11 -12 15 -15z m17 -29 c0 -5 -5 -10 -11
-10 -5 0 -7 5 -4 10 3 6 8 10 11 10 2 0 4 -4 4 -10z m-35 -28 c0 -6 2 -11 5
-10 3 1 15 -4 27 -10 17 -9 21 -18 17 -39 -3 -15 -7 -29 -8 -30 -2 -2 -16 16
-32 39 -48 71 -48 70 -28 66 11 -2 19 -9 19 -16z m1005 -245 c0 -7 -9 -18 -20
-25 -20 -12 -21 -12 -4 13 18 28 24 31 24 12z m-1520 -67 c0 -5 -4 -10 -9 -10
-5 0 -12 -10 -15 -22 -8 -28 -34 -63 -41 -56 -3 3 7 26 22 52 27 44 43 58 43
36z m1036 -83 c-1 -8 -20 -29 -41 -48 l-40 -34 29 40 c25 33 45 54 53 55 1 0
0 -6 -1 -13z m-1092 -62 c3 -9 0 -15 -9 -15 -9 0 -12 6 -9 15 4 8 7 15 9 15 2
0 5 -7 9 -15z m1526 11 c0 -2 -8 -10 -17 -17 -16 -13 -17 -12 -4 4 13 16 21
21 21 13z m-529 -44 c-5 -10 -17 -24 -25 -31 -17 -14 -13 -32 7 -27 7 1 9 1 4
-1 -4 -3 -5 -8 -3 -12 3 -4 -1 -8 -9 -8 -8 0 -13 3 -10 5 3 3 0 11 -6 18 -8
10 -5 19 10 35 12 13 21 26 21 31 0 4 5 8 10 8 7 0 7 -6 1 -18z m597 -64 c-7
-13 -11 -29 -10 -35 2 -7 -2 -13 -8 -13 -7 0 -9 -8 -5 -19 3 -12 0 -21 -10
-24 -8 -4 -12 -13 -9 -22 3 -8 2 -15 -4 -15 -5 0 -12 -9 -15 -20 -6 -24 -27
-27 -27 -4 0 8 4 13 9 9 6 -3 13 10 17 30 3 19 11 35 16 35 8 0 5 18 -9 58 -3
6 0 12 7 12 6 0 8 -6 5 -12 -4 -7 1 -4 10 7 9 11 19 31 22 44 5 20 7 21 15 7
6 -10 4 -24 -4 -38z m-47 9 c-13 -13 -26 -3 -16 12 3 6 11 8 17 5 6 -4 6 -10
-1 -17z m-79 -19 c-6 -6 -16 -8 -22 -6 -9 3 -7 9 6 22 13 13 19 15 22 6 2 -6
0 -16 -6 -22z m-1648 -153 c-10 -19 -22 -35 -26 -35 -5 0 -7 -3 -7 -7 4 -27
-34 -82 -45 -64 -4 5 -2 13 4 16 6 4 20 27 32 53 22 46 49 82 57 75 2 -1 -4
-19 -15 -38z m440 -16 c-10 -17 -20 -9 -20 17 0 23 1 24 13 8 7 -9 10 -21 7
-25z m1196 16 c0 -9 -25 -50 -35 -57 -5 -4 -14 -8 -20 -8 -5 0 -3 5 5 10 8 5
12 10 7 10 -10 0 23 50 34 50 5 0 9 -2 9 -5z m23 -115 c-10 -9 -20 -13 -21 -8
-6 13 19 39 30 32 5 -3 1 -14 -9 -24z m-345 3 c-12 -27 -44 -73 -50 -73 -11 0
-3 28 17 54 18 23 42 37 33 19z m-1414 -28 c-3 -7 -12 -11 -19 -8 -11 4 -12 8
-2 18 15 16 28 10 21 -10z m-44 -15 c0 -5 -4 -10 -10 -10 -5 0 -10 5 -10 10 0
6 5 10 10 10 6 0 10 -4 10 -10z m47 -31 c-6 -10 -15 -19 -19 -19 -5 0 -8 -7
-8 -15 0 -9 -9 -34 -21 -57 -11 -22 -22 -52 -23 -67 -3 -27 -31 -38 -30 -11 0
15 43 111 53 120 8 7 14 31 15 56 1 15 6 19 23 16 19 -4 20 -7 10 -23z m1298
-159 c3 -6 -1 -7 -9 -4 -18 7 -21 14 -7 14 6 0 13 -4 16 -10z m226 -23 c-10
-9 -11 -8 -5 6 3 10 9 15 12 12 3 -3 0 -11 -7 -18z m-1618 -14 c2 -5 -6 -18
-19 -30 -28 -27 -44 -11 -18 18 18 20 30 24 37 12z m-278 -222 c3 -5 1 -12 -5
-16 -5 -3 -10 1 -10 9 0 18 6 21 15 7z m1531 -21 c0 -11 -6 -20 -12 -20 -7 0
-10 8 -7 20 3 11 8 20 12 20 4 0 7 -9 7 -20z m-466 -920 c0 -5 -5 -10 -11 -10
-5 0 -7 5 -4 10 3 6 8 10 11 10 2 0 4 -4 4 -10z"/>
<path d="M1350 4812 c0 -11 6 -22 14 -25 10 -4 12 0 9 14 -7 27 -23 34 -23 11z"/>
<path d="M6000 4673 c0 -4 -64 -8 -143 -8 -82 0 -148 -4 -156 -10 -8 -5 -17
-8 -20 -7 -32 19 -43 23 -37 13 5 -7 -3 -10 -24 -7 -17 2 -32 1 -34 -3 -2 -3
-38 -6 -80 -6 -42 0 -76 -2 -76 -5 0 -3 -15 -6 -33 -7 -36 -3 -55 -7 -77 -16
-8 -4 -40 -9 -70 -11 -30 -2 -62 -6 -70 -9 -8 -3 -34 -11 -56 -17 -23 -5 -64
-20 -90 -32 -27 -12 -53 -21 -58 -20 -4 2 -14 -2 -22 -9 -7 -6 -18 -8 -24 -4
-5 3 -10 1 -10 -4 0 -6 -9 -11 -20 -11 -10 0 -24 -8 -29 -17 -6 -10 -11 -15
-11 -11 0 10 -120 -32 -120 -43 0 -5 -5 -9 -11 -9 -6 0 -30 -14 -55 -30 -24
-17 -44 -27 -44 -23 0 4 -6 1 -13 -7 -7 -9 -29 -26 -49 -39 -21 -12 -38 -27
-38 -32 0 -5 -13 -17 -29 -27 -15 -9 -29 -21 -29 -25 -1 -8 -46 -58 -96 -107
-15 -15 -25 -33 -22 -39 4 -6 1 -14 -7 -17 -8 -3 -13 -16 -11 -29 1 -13 -6
-34 -17 -46 -22 -26 -24 -33 -6 -23 9 5 9 4 1 -6 -9 -9 -8 -20 5 -43 9 -18 19
-34 24 -35 4 -2 5 -8 1 -13 -3 -5 2 -12 10 -15 9 -3 13 -10 10 -15 -3 -5 -1
-9 5 -9 6 0 8 -6 5 -14 -3 -8 6 -24 20 -37 14 -12 23 -26 20 -31 -3 -4 2 -8
10 -8 9 0 16 6 16 13 0 6 5 4 11 -6 5 -9 8 -21 5 -26 -7 -10 22 -25 42 -22 6
1 12 -2 12 -6 0 -12 50 -32 88 -35 26 -2 32 -6 30 -22 -2 -14 10 -26 42 -44
25 -14 48 -30 52 -36 4 -6 8 -8 8 -4 0 4 12 3 26 -2 22 -9 29 -7 45 11 10 12
16 27 12 33 -8 14 26 -12 49 -37 10 -11 19 -14 23 -8 4 7 12 7 25 -2 25 -15
25 -23 0 -30 -11 -3 -20 -2 -20 3 0 10 -36 19 -46 11 -12 -9 -17 -34 -5 -27 5
4 13 1 18 -6 4 -7 19 -19 32 -26 12 -8 20 -9 17 -3 -4 7 -1 8 8 5 9 -3 13 -11
9 -17 -3 -6 -1 -7 5 -3 11 7 82 -29 94 -48 4 -6 8 -8 8 -4 0 10 70 -21 89 -39
10 -11 16 -12 19 -4 3 8 9 6 18 -6 11 -14 13 -15 14 -3 0 12 3 11 11 -3 6 -9
14 -15 20 -12 5 4 9 -1 9 -11 0 -9 9 -25 21 -35 17 -14 18 -21 8 -36 -6 -11
-24 -25 -40 -32 -16 -7 -29 -19 -29 -27 0 -8 -5 -14 -11 -14 -5 0 -8 -4 -5 -9
3 -5 -1 -11 -9 -15 -8 -3 -15 -12 -15 -20 0 -12 -33 -30 -51 -27 -4 0 -14 -14
-23 -32 -8 -18 -16 -29 -16 -25 0 3 -14 -7 -31 -23 -18 -16 -34 -27 -37 -24
-5 5 -69 -31 -90 -52 -8 -7 -18 -11 -23 -8 -5 4 -9 2 -9 -2 0 -9 -10 -14 -86
-51 -27 -12 -51 -26 -54 -30 -10 -13 -72 -42 -90 -42 -10 0 -22 -5 -25 -10 -4
-6 -11 -8 -16 -5 -5 4 -9 2 -9 -4 0 -5 -17 -15 -37 -22 -21 -7 -38 -11 -38
-10 0 2 -23 -9 -51 -23 -29 -14 -64 -26 -78 -26 -14 0 -26 -5 -26 -11 0 -5 -4
-7 -10 -4 -5 3 -10 1 -10 -5 0 -6 -4 -9 -9 -6 -5 3 -11 0 -14 -8 -3 -8 -16
-12 -31 -11 -14 2 -26 0 -26 -5 0 -10 -56 -30 -64 -23 -3 4 -6 1 -6 -5 0 -6
-7 -9 -17 -5 -12 5 -14 3 -8 -7 5 -9 4 -11 -4 -6 -7 5 -51 -9 -99 -29 -47 -21
-91 -38 -96 -39 -6 -1 -21 -8 -33 -14 -13 -7 -23 -10 -23 -6 0 3 -7 1 -15 -6
-8 -7 -15 -9 -15 -5 0 5 -8 2 -17 -6 -26 -22 -65 -40 -91 -42 -12 0 -22 -5
-22 -10 0 -5 -6 -7 -12 -4 -7 2 -17 -2 -23 -9 -5 -7 -19 -14 -30 -16 -11 -2
-22 -5 -25 -8 -3 -3 -16 -11 -29 -18 -19 -11 -22 -11 -15 0 6 10 5 11 -7 2
-14 -12 -70 -27 -102 -28 -10 -1 -21 -6 -25 -11 -4 -6 -27 -12 -52 -13 -67 -3
-70 -4 -70 -19 0 -8 -4 -11 -10 -8 -5 3 -10 2 -10 -3 0 -12 -49 -30 -72 -26
-10 1 -18 -1 -18 -4 0 -9 -81 -34 -87 -28 -3 3 -12 -1 -20 -9 -8 -8 -24 -15
-37 -15 -12 0 -27 -5 -32 -10 -9 -9 -25 -14 -72 -24 -24 -4 -53 -36 -46 -49 6
-9 4 -9 -7 -1 -23 17 -159 3 -188 -20 -12 -9 -13 -8 -6 4 7 13 6 13 -7 2 -12
-9 -18 -10 -23 -2 -5 8 -11 8 -19 1 -9 -7 -16 -7 -24 1 -9 9 -12 9 -12 -1 0
-7 -6 -11 -12 -8 -17 6 -50 -12 -43 -22 3 -5 21 -8 40 -7 19 1 35 -3 35 -9 0
-7 3 -7 8 0 4 6 21 10 37 9 17 0 34 1 39 4 5 3 27 6 50 8 72 6 94 10 108 20
22 16 64 16 77 0 15 -18 6 -37 -14 -29 -9 3 -23 -1 -32 -8 -14 -12 -16 -12 -8
1 8 13 7 13 -10 0 -14 -12 -19 -12 -23 -2 -3 10 -7 10 -20 0 -8 -7 -16 -11
-16 -9 -1 2 -11 1 -23 -3 -17 -6 -20 -10 -11 -19 6 -7 18 -13 27 -13 9 -1 31
-4 50 -7 22 -4 42 0 56 9 16 10 25 12 30 5 4 -8 13 -7 28 1 12 7 27 11 32 9 6
-2 17 -4 24 -5 44 -7 6 -38 -46 -38 -13 -1 -23 -4 -23 -8 0 -4 -13 -7 -30 -8
-16 0 -35 -4 -42 -9 -7 -4 -31 -9 -53 -9 -62 -3 -63 -3 -61 -16 0 -7 -2 -14
-6 -16 -17 -7 -74 -23 -93 -26 -11 -2 -39 -9 -63 -15 -36 -10 -41 -15 -32 -26
8 -9 21 -13 35 -9 13 3 58 7 102 8 43 2 88 8 98 13 11 6 28 9 37 8 10 -2 21 1
24 6 3 6 11 5 20 -2 11 -9 14 -8 14 2 0 8 12 15 28 16 57 3 137 16 142 24 3 4
23 9 45 11 22 2 43 8 47 13 5 6 8 5 8 -4 0 -11 3 -11 15 -1 8 6 18 9 23 6 5
-3 20 1 35 9 16 8 29 10 32 4 6 -9 -1 -13 -17 -10 -5 0 -8 -3 -8 -8 0 -5 -13
-8 -30 -6 -16 2 -30 0 -30 -5 0 -6 -9 -10 -20 -10 -11 0 -20 -4 -20 -9 0 -8
-10 -8 -59 1 -9 2 -45 -15 -51 -23 -3 -5 -22 -9 -43 -11 -20 -1 -39 -8 -42
-16 -2 -7 0 -10 5 -7 6 3 10 1 10 -6 0 -7 3 -10 6 -6 4 3 19 0 35 -9 36 -18
36 -18 56 2 11 11 18 13 21 5 2 -6 8 -11 13 -11 6 0 8 4 5 8 -2 4 4 8 15 8 10
0 19 -4 19 -8 0 -4 11 -3 25 2 14 5 25 6 25 2 0 -10 103 -8 120 3 9 6 11 4 5
-4 -6 -10 -3 -11 16 -1 12 7 39 14 58 15 20 1 36 3 36 5 0 2 33 8 80 14 22 2
40 5 40 6 0 2 30 8 70 15 51 8 59 10 90 22 73 27 80 30 108 36 6 1 18 6 25 10
6 5 12 6 12 2 0 -3 10 0 23 7 12 7 25 11 30 10 4 -1 7 2 7 6 0 4 8 8 18 9 9 0
35 4 57 8 22 4 49 9 60 10 11 1 33 7 48 13 16 7 35 12 43 12 8 0 14 4 14 8 0
4 11 9 25 10 36 3 49 6 56 14 3 5 17 9 32 10 15 1 27 6 27 9 0 8 59 24 73 21
4 -1 7 2 7 8 0 5 8 10 18 10 9 0 25 7 35 15 11 7 26 11 35 8 11 -5 13 -3 7 7
-5 8 -4 11 2 7 12 -8 83 11 83 22 0 10 80 32 92 25 4 -3 8 0 8 5 0 6 7 11 15
11 8 0 15 5 15 10 0 6 9 10 21 10 11 0 27 7 36 15 8 8 19 13 24 9 5 -3 12 1
15 10 3 8 11 13 19 10 7 -3 20 2 29 11 9 9 16 13 16 9 0 -3 6 -2 13 3 17 14
57 23 57 13 0 -4 9 -6 21 -3 11 3 18 11 15 18 -5 14 14 25 41 25 9 0 13 -6 10
-15 -7 -16 6 -29 17 -18 4 4 16 8 28 10 28 4 39 22 31 50 -6 26 8 30 26 9 16
-19 47 -9 66 20 8 13 21 24 28 24 7 0 13 10 14 21 2 25 14 39 34 42 8 2 20 6
27 10 6 5 17 5 23 2 5 -4 18 2 27 12 12 14 27 19 52 17 19 -2 46 -1 59 2 22 5
23 6 5 19 -10 7 -22 11 -26 9 -14 -9 -8 14 7 28 35 31 45 38 59 38 8 0 18 5
21 10 4 6 10 8 15 5 5 -3 11 -1 15 5 4 6 10 8 13 6 4 -2 13 7 19 21 10 21 10
23 -2 13 -12 -10 -16 -9 -21 4 -8 20 18 47 36 36 10 -6 10 -9 -1 -13 -8 -3 -3
-6 11 -6 15 -1 31 4 36 9 6 6 27 12 47 13 21 1 37 5 37 10 0 4 6 7 13 7 19 0
50 36 43 49 -7 11 -44 -4 -58 -24 -5 -6 -8 -4 -7 5 0 16 69 65 69 50 0 -19 32
-10 37 10 3 11 10 20 15 20 5 0 7 3 5 8 -3 4 4 25 15 47 11 22 20 53 19 69 -1
15 3 33 7 40 10 12 36 85 37 101 0 6 4 16 8 23 5 6 6 12 2 12 -3 0 -1 8 4 19
8 14 5 30 -11 62 -12 24 -24 57 -26 74 -2 16 -9 33 -15 37 -9 5 -9 10 1 20 18
18 15 67 -5 75 -23 8 -54 43 -48 53 3 4 -13 20 -35 35 -22 15 -40 32 -40 37 0
5 -4 7 -9 4 -4 -3 -19 6 -31 19 -13 14 -28 25 -33 25 -5 0 -18 11 -29 25 -11
14 -24 23 -29 19 -5 -3 -12 2 -15 10 -3 9 -12 16 -19 16 -6 0 -22 9 -35 20
-13 11 -29 20 -37 20 -7 0 -13 5 -13 10 0 6 -6 10 -14 10 -8 0 -28 13 -44 28
-22 21 -35 26 -46 20 -10 -6 -16 -5 -16 2 0 5 -7 10 -15 10 -8 0 -19 9 -25 21
-9 15 -18 19 -41 15 -23 -3 -36 2 -59 26 -17 16 -30 25 -30 20 0 -15 -21 -9
-65 17 -22 13 -51 25 -64 28 -29 5 -62 22 -44 23 7 0 10 7 7 15 -6 14 11 20
39 16 4 0 7 4 7 10 0 6 6 9 14 6 8 -3 17 -3 20 1 4 3 21 6 38 7 18 1 34 7 36
13 2 7 8 10 13 6 5 -3 9 -1 9 3 0 5 10 10 22 10 21 2 48 12 93 36 11 6 38 11
60 12 73 4 139 16 191 35 29 10 55 16 58 13 3 -4 6 0 6 7 0 7 3 10 7 7 3 -4
12 -2 20 4 7 6 13 8 13 4 0 -4 7 -2 15 5 13 10 44 15 138 19 10 1 16 5 13 9
-8 13 8 31 32 35 12 2 25 6 28 10 4 4 13 2 20 -4 8 -7 14 -7 19 1 5 8 11 8 21
-1 11 -9 14 -9 14 0 0 7 4 10 9 7 10 -7 24 22 16 34 -3 4 -15 6 -27 2 -17 -4
-20 -2 -15 12 5 12 -1 19 -21 27 -15 5 -36 14 -47 19 -11 6 -32 11 -47 12 -18
2 -24 6 -18 12 17 17 11 24 -15 21 -20 -2 -23 1 -14 11 7 8 28 12 59 10 40 -3
49 0 53 15 3 11 1 17 -4 13 -5 -3 -9 -1 -9 4 0 5 -9 12 -21 15 -23 6 -17 27 7
27 8 0 14 5 14 11 0 5 5 7 10 4 6 -3 10 -1 10 5 0 6 11 8 25 6 14 -3 25 0 25
5 0 5 13 9 28 9 15 0 32 4 38 9 5 5 38 11 74 12 78 3 97 7 103 23 6 15 13 14
-130 20 -62 2 -117 7 -123 11 -5 3 -10 3 -10 -2z m-140 -249 c0 -2 -7 -4 -15
-4 -8 0 -15 4 -15 10 0 5 7 7 15 4 8 -4 15 -8 15 -10z m-1511 -455 c-12 -8
-12 -10 -1 -18 11 -7 11 -9 -1 -14 -8 -3 -17 -3 -20 0 -9 9 15 53 26 46 5 -3
3 -9 -4 -14z m99 -94 c-3 -3 -9 2 -12 12 -6 14 -5 15 5 6 7 -7 10 -15 7 -18z
m42 -46 c0 -11 -4 -17 -10 -14 -5 3 -10 13 -10 21 0 8 5 14 10 14 6 0 10 -9
10 -21z m74 -30 c-8 -14 -24 -10 -24 6 0 9 6 12 15 9 8 -4 12 -10 9 -15z m-11
-43 c24 -19 21 -25 -10 -21 -16 2 -32 4 -37 4 -9 1 13 31 23 31 3 0 14 -7 24
-14z m57 -37 c0 -5 7 -9 16 -9 8 0 13 -4 9 -9 -3 -6 -17 -6 -35 1 -29 10 -36
19 -24 31 8 8 34 -3 34 -14z m150 -74 c0 -15 -48 -14 -54 2 -4 8 4 11 24 10
17 -1 30 -7 30 -12z m30 -28 c0 -5 -4 -5 -10 -2 -5 3 -10 14 -10 23 0 15 2 15
10 2 5 -8 10 -19 10 -23z m116 -22 c16 -8 23 -15 16 -15 -8 0 -10 -5 -6 -12 4
-6 -5 -3 -19 8 -15 10 -27 22 -27 27 0 10 4 9 36 -8z m289 -144 c4 -10 -1 -10
-19 3 -14 9 -33 16 -43 16 -14 0 -15 2 -5 9 16 10 59 -8 67 -28z m90 -150 c-7
-6 -75 69 -75 82 0 6 18 -9 40 -33 22 -24 38 -46 35 -49z m565 -171 c0 -5 -5
-10 -11 -10 -5 0 -7 5 -4 10 3 6 8 10 11 10 2 0 4 -4 4 -10z m-20 -86 c0 -13
-10 -25 -25 -32 -14 -6 -25 -16 -25 -22 0 -6 -4 -9 -8 -6 -4 2 -14 -9 -21 -25
-7 -16 -17 -27 -22 -23 -5 3 -9 1 -9 -5 0 -16 -34 -31 -49 -21 -10 6 -6 12 15
22 16 8 28 20 26 26 -1 7 5 15 13 18 8 3 12 10 9 15 -3 5 0 9 5 9 6 0 11 6 11
13 0 7 14 28 31 46 33 36 49 31 49 -15z m-271 -256 c-5 -10 -16 -18 -24 -18
-7 0 -37 -23 -65 -52 -28 -28 -60 -52 -71 -53 -19 -2 -19 -1 0 19 10 12 16 27
13 35 -3 10 0 12 11 8 9 -3 18 1 21 9 3 9 10 12 16 9 5 -3 10 -2 10 3 0 5 13
15 29 22 16 6 32 17 34 24 3 7 12 13 21 13 11 0 13 -5 5 -19z m-275 -179 c-15
-16 -34 -29 -41 -29 -8 0 -23 -9 -35 -20 -25 -23 -38 -26 -38 -7 0 14 121 96
133 89 5 -2 -4 -17 -19 -33z m-674 -13 c0 -3 -4 -8 -10 -11 -5 -3 -10 -1 -10
4 0 6 5 11 10 11 6 0 10 -2 10 -4z m548 -63 c-2 -21 1 -28 14 -27 14 1 15 -2
5 -17 -11 -18 -12 -17 -25 6 -7 15 -18 23 -24 19 -7 -4 -8 -3 -4 4 11 17 -9
15 -24 -3 -14 -17 -35 -21 -24 -4 7 12 65 49 77 49 4 0 6 -12 5 -27z m-698 -3
c-7 -4 -12 -20 -12 -35 0 -23 -2 -25 -10 -11 -5 9 -13 14 -19 11 -14 -9 -11 4
8 29 10 13 24 21 31 18 10 -4 11 -7 2 -12z m-825 -307 c-19 -13 -31 -11 -21 5
3 5 13 9 22 9 15 0 15 -2 -1 -14z m-52 -31 c-4 -10 -8 -12 -11 -4 -2 7 -8 10
-13 7 -5 -4 -6 1 -3 9 3 8 12 12 19 10 8 -3 11 -13 8 -22z m-53 -8 c0 -3 -4
-3 -9 1 -5 3 -12 1 -16 -4 -3 -5 -14 -9 -25 -8 -18 1 -18 3 -3 19 12 13 20 15
34 7 11 -5 19 -12 19 -15z m-455 6 c-3 -5 -12 -10 -18 -10 -7 0 -6 4 3 10 19
12 23 12 15 0z m375 -22 c0 -4 -4 -8 -9 -8 -6 0 -12 4 -15 8 -3 5 1 9 9 9 8 0
15 -4 15 -9z m-120 -22 c0 -3 -4 -8 -10 -11 -5 -3 -10 -1 -10 4 0 6 5 11 10
11 6 0 10 -2 10 -4z m-82 -40 c-10 -7 -16 -15 -13 -18 3 -2 -9 -3 -25 0 -54 8
-36 23 35 29 19 2 19 1 3 -11z m-78 -6 c0 -14 -40 -32 -57 -25 -25 9 1 26 50
34 4 0 7 -3 7 -9z m435 0 c3 -6 -1 -7 -9 -4 -18 7 -21 14 -7 14 6 0 13 -4 16
-10z m-231 -78 c3 -5 -1 -9 -9 -9 -8 0 -12 4 -9 9 3 4 7 8 9 8 2 0 6 -4 9 -8z"/>
<path d="M1730 4482 c0 -21 17 -32 38 -24 14 5 17 32 3 32 -5 0 -16 3 -25 6
-11 4 -16 0 -16 -14z"/>
<path d="M5950 3400 c0 -18 23 -34 34 -23 12 13 5 31 -14 36 -15 4 -20 0 -20
-13z"/>
<path d="M5972 3202 c-5 -9 -7 -23 -6 -29 1 -7 2 -21 3 -30 1 -16 3 -16 11 -3
5 8 10 11 10 5 1 -5 6 1 11 15 7 18 7 26 -2 29 -8 2 -8 5 1 11 8 5 7 9 -4 13
-9 4 -19 -1 -24 -11z"/>
<path d="M1653 2953 c0 -8 6 -12 12 -9 7 2 19 -1 26 -7 11 -10 11 -9 1 4 -6 9
-9 19 -6 22 4 3 -2 5 -13 4 -11 0 -20 -7 -20 -14z"/>
<path d="M5526 2685 c-31 -32 -18 -44 22 -21 20 11 21 14 9 25 -12 9 -18 8
-31 -4z"/>
<path d="M2760 2079 c0 -4 7 -10 16 -13 8 -3 13 -2 9 3 -3 5 1 11 7 14 7 3 3
4 -9 4 -13 -1 -23 -4 -23 -8z"/>
</g>
</svg>
